<?xml version="1.0" encoding="UTF-8" standalone="no"?>
<!DOCTYPE svg PUBLIC "-//W3C//DTD SVG 1.1//EN"
 "http://www.w3.org/Graphics/SVG/1.1/DTD/svg11.dtd">
<!-- Generated by graphviz version 9.0.0 (20230911.1827)
 -->
<!-- Pages: 1 -->
<svg width="844pt" height="476pt"
 viewBox="0.00 0.00 844.44 476.00" xmlns="http://www.w3.org/2000/svg" xmlns:xlink="http://www.w3.org/1999/xlink">
<g id="graph0" class="graph" transform="scale(1 1) rotate(0) translate(4 472)">
<polygon fill="white" stroke="none" points="-4,4 -4,-472 840.44,-472 840.44,4 -4,4"/>
<!-- [root] aws_instance.web_instance (expand) -->
<g id="node1" class="node">
<title>[root] aws_instance.web_instance (expand)</title>
<polygon fill="none" stroke="black" points="324.63,-324 154.88,-324 154.88,-288 324.63,-288 324.63,-324"/>
<text text-anchor="middle" x="239.75" y="-300.57" font-family="Times New Roman,serif" font-size="14.00">aws_instance.web_instance</text>
</g>
<!-- [root] aws_security_group.web_sg (expand) -->
<g id="node5" class="node">
<title>[root] aws_security_group.web_sg (expand)</title>
<polygon fill="none" stroke="black" points="351,-180 174.5,-180 174.5,-144 351,-144 351,-180"/>
<text text-anchor="middle" x="262.75" y="-156.57" font-family="Times New Roman,serif" font-size="14.00">aws_security_group.web_sg</text>
</g>
<!-- [root] aws_instance.web_instance (expand)&#45;&gt;[root] aws_security_group.web_sg (expand) -->
<g id="edge1" class="edge">
<title>[root] aws_instance.web_instance (expand)&#45;&gt;[root] aws_security_group.web_sg (expand)</title>
<path fill="none" stroke="black" d="M242.57,-287.59C246.45,-263.61 253.5,-220.14 258.15,-191.42"/>
<polygon fill="black" stroke="black" points="261.59,-192.04 259.74,-181.6 254.68,-190.92 261.59,-192.04"/>
</g>
<!-- [root] aws_subnet.some_public_subnet (expand) -->
<g id="node7" class="node">
<title>[root] aws_subnet.some_public_subnet (expand)</title>
<polygon fill="none" stroke="black" points="469.75,-252 267.75,-252 267.75,-216 469.75,-216 469.75,-252"/>
<text text-anchor="middle" x="368.75" y="-228.57" font-family="Times New Roman,serif" font-size="14.00">aws_subnet.some_public_subnet</text>
</g>
<!-- [root] aws_instance.web_instance (expand)&#45;&gt;[root] aws_subnet.some_public_subnet (expand) -->
<g id="edge2" class="edge">
<title>[root] aws_instance.web_instance (expand)&#45;&gt;[root] aws_subnet.some_public_subnet (expand)</title>
<path fill="none" stroke="black" d="M271.97,-287.52C288.64,-278.47 309.19,-267.32 327.06,-257.62"/>
<polygon fill="black" stroke="black" points="328.49,-260.83 335.61,-252.98 325.15,-254.68 328.49,-260.83"/>
</g>
<!-- [root] data.aws_ami.app_ami (expand) -->
<g id="node9" class="node">
<title>[root] data.aws_ami.app_ami (expand)</title>
<polygon fill="none" stroke="black" points="245.5,-108 102,-108 102,-72 245.5,-72 245.5,-108"/>
<text text-anchor="middle" x="173.75" y="-84.58" font-family="Times New Roman,serif" font-size="14.00">data.aws_ami.app_ami</text>
</g>
<!-- [root] aws_instance.web_instance (expand)&#45;&gt;[root] data.aws_ami.app_ami (expand) -->
<g id="edge3" class="edge">
<title>[root] aws_instance.web_instance (expand)&#45;&gt;[root] data.aws_ami.app_ami (expand)</title>
<path fill="none" stroke="black" d="M225.4,-287.77C207.36,-264.86 177.34,-222.32 165.75,-180 160.33,-160.21 162.65,-137.11 166.15,-119.41"/>
<polygon fill="black" stroke="black" points="169.52,-120.38 168.29,-109.86 162.69,-118.85 169.52,-120.38"/>
</g>
<!-- [root] aws_internet_gateway.some_ig (expand) -->
<g id="node2" class="node">
<title>[root] aws_internet_gateway.some_ig (expand)</title>
<polygon fill="none" stroke="black" points="596.38,-180 407.13,-180 407.13,-144 596.38,-144 596.38,-180"/>
<text text-anchor="middle" x="501.75" y="-156.57" font-family="Times New Roman,serif" font-size="14.00">aws_internet_gateway.some_ig</text>
</g>
<!-- [root] aws_vpc.some_custom_vpc (expand) -->
<g id="node8" class="node">
<title>[root] aws_vpc.some_custom_vpc (expand)</title>
<polygon fill="none" stroke="black" points="467.38,-108 290.13,-108 290.13,-72 467.38,-72 467.38,-108"/>
<text text-anchor="middle" x="378.75" y="-84.58" font-family="Times New Roman,serif" font-size="14.00">aws_vpc.some_custom_vpc</text>
</g>
<!-- [root] aws_internet_gateway.some_ig (expand)&#45;&gt;[root] aws_vpc.some_custom_vpc (expand) -->
<g id="edge4" class="edge">
<title>[root] aws_internet_gateway.some_ig (expand)&#45;&gt;[root] aws_vpc.some_custom_vpc (expand)</title>
<path fill="none" stroke="black" d="M471.03,-143.52C455.21,-134.51 435.72,-123.42 418.74,-113.76"/>
<polygon fill="black" stroke="black" points="420.82,-110.91 410.4,-109.01 417.36,-117 420.82,-110.91"/>
</g>
<!-- [root] aws_route_table.public_rt (expand) -->
<g id="node3" class="node">
<title>[root] aws_route_table.public_rt (expand)</title>
<polygon fill="none" stroke="black" points="649.5,-252 488,-252 488,-216 649.5,-216 649.5,-252"/>
<text text-anchor="middle" x="568.75" y="-228.57" font-family="Times New Roman,serif" font-size="14.00">aws_route_table.public_rt</text>
</g>
<!-- [root] aws_route_table.public_rt (expand)&#45;&gt;[root] aws_internet_gateway.some_ig (expand) -->
<g id="edge5" class="edge">
<title>[root] aws_route_table.public_rt (expand)&#45;&gt;[root] aws_internet_gateway.some_ig (expand)</title>
<path fill="none" stroke="black" d="M552.19,-215.7C544.32,-207.47 534.76,-197.48 526.08,-188.42"/>
<polygon fill="black" stroke="black" points="528.61,-186 519.17,-181.2 523.55,-190.84 528.61,-186"/>
</g>
<!-- [root] aws_route_table_association.public_1_rt_a (expand) -->
<g id="node4" class="node">
<title>[root] aws_route_table_association.public_1_rt_a (expand)</title>
<polygon fill="none" stroke="black" points="688.25,-324 429.25,-324 429.25,-288 688.25,-288 688.25,-324"/>
<text text-anchor="middle" x="558.75" y="-300.57" font-family="Times New Roman,serif" font-size="14.00">aws_route_table_association.public_1_rt_a</text>
</g>
<!-- [root] aws_route_table_association.public_1_rt_a (expand)&#45;&gt;[root] aws_route_table.public_rt (expand) -->
<g id="edge6" class="edge">
<title>[root] aws_route_table_association.public_1_rt_a (expand)&#45;&gt;[root] aws_route_table.public_rt (expand)</title>
<path fill="none" stroke="black" d="M561.22,-287.7C562.28,-280.32 563.53,-271.52 564.71,-263.25"/>
<polygon fill="black" stroke="black" points="568.14,-264 566.09,-253.6 561.21,-263.01 568.14,-264"/>
</g>
<!-- [root] aws_route_table_association.public_1_rt_a (expand)&#45;&gt;[root] aws_subnet.some_public_subnet (expand) -->
<g id="edge7" class="edge">
<title>[root] aws_route_table_association.public_1_rt_a (expand)&#45;&gt;[root] aws_subnet.some_public_subnet (expand)</title>
<path fill="none" stroke="black" d="M511.3,-287.52C485.58,-278.04 453.61,-266.26 426.46,-256.26"/>
<polygon fill="black" stroke="black" points="427.94,-253.08 417.35,-252.9 425.52,-259.65 427.94,-253.08"/>
</g>
<!-- [root] aws_security_group.web_sg (expand)&#45;&gt;[root] aws_vpc.some_custom_vpc (expand) -->
<g id="edge8" class="edge">
<title>[root] aws_security_group.web_sg (expand)&#45;&gt;[root] aws_vpc.some_custom_vpc (expand)</title>
<path fill="none" stroke="black" d="M291.72,-143.52C306.51,-134.6 324.68,-123.63 340.59,-114.03"/>
<polygon fill="black" stroke="black" points="342.1,-117.21 348.85,-109.04 338.48,-111.21 342.1,-117.21"/>
</g>
<!-- [root] aws_subnet.some_private_subnet (expand) -->
<g id="node6" class="node">
<title>[root] aws_subnet.some_private_subnet (expand)</title>
<polygon fill="none" stroke="black" points="819.25,-180 614.25,-180 614.25,-144 819.25,-144 819.25,-180"/>
<text text-anchor="middle" x="716.75" y="-156.57" font-family="Times New Roman,serif" font-size="14.00">aws_subnet.some_private_subnet</text>
</g>
<!-- [root] aws_subnet.some_private_subnet (expand)&#45;&gt;[root] aws_vpc.some_custom_vpc (expand) -->
<g id="edge9" class="edge">
<title>[root] aws_subnet.some_private_subnet (expand)&#45;&gt;[root] aws_vpc.some_custom_vpc (expand)</title>
<path fill="none" stroke="black" d="M632.33,-143.52C584.25,-133.56 523.86,-121.05 474.08,-110.74"/>
<polygon fill="black" stroke="black" points="474.96,-107.35 464.45,-108.75 473.54,-114.2 474.96,-107.35"/>
</g>
<!-- [root] aws_subnet.some_public_subnet (expand)&#45;&gt;[root] aws_vpc.some_custom_vpc (expand) -->
<g id="edge10" class="edge">
<title>[root] aws_subnet.some_public_subnet (expand)&#45;&gt;[root] aws_vpc.some_custom_vpc (expand)</title>
<path fill="none" stroke="black" d="M369.98,-215.59C371.67,-191.61 374.73,-148.14 376.75,-119.42"/>
<polygon fill="black" stroke="black" points="380.23,-119.84 377.44,-109.62 373.25,-119.35 380.23,-119.84"/>
</g>
<!-- [root] provider[&quot;registry.terraform.io/hashicorp/aws&quot;] -->
<g id="node10" class="node">
<title>[root] provider[&quot;registry.terraform.io/hashicorp/aws&quot;]</title>
<polygon fill="none" stroke="black" points="262.75,-36 0,-18 262.75,0 525.5,-18 262.75,-36"/>
<text text-anchor="middle" x="262.75" y="-12.58" font-family="Times New Roman,serif" font-size="14.00">provider[&quot;registry.terraform.io/hashicorp/aws&quot;]</text>
</g>
<!-- [root] aws_vpc.some_custom_vpc (expand)&#45;&gt;[root] provider[&quot;registry.terraform.io/hashicorp/aws&quot;] -->
<g id="edge11" class="edge">
<title>[root] aws_vpc.some_custom_vpc (expand)&#45;&gt;[root] provider[&quot;registry.terraform.io/hashicorp/aws&quot;]</title>
<path fill="none" stroke="black" d="M349.78,-71.52C334.22,-62.13 314.9,-50.47 298.42,-40.53"/>
<polygon fill="black" stroke="black" points="300.26,-37.54 289.89,-35.37 296.64,-43.54 300.26,-37.54"/>
</g>
<!-- [root] data.aws_ami.app_ami (expand)&#45;&gt;[root] provider[&quot;registry.terraform.io/hashicorp/aws&quot;] -->
<g id="edge12" class="edge">
<title>[root] data.aws_ami.app_ami (expand)&#45;&gt;[root] provider[&quot;registry.terraform.io/hashicorp/aws&quot;]</title>
<path fill="none" stroke="black" d="M195.75,-71.7C207.15,-62.73 221.23,-51.65 233.54,-41.98"/>
<polygon fill="black" stroke="black" points="235.64,-44.78 241.34,-35.84 231.31,-39.27 235.64,-44.78"/>
</g>
<!-- [root] output.ec2_global_ips (expand) -->
<g id="node11" class="node">
<title>[root] output.ec2_global_ips (expand)</title>
<ellipse fill="none" stroke="black" cx="189.75" cy="-378" rx="152.86" ry="18"/>
<text text-anchor="middle" x="189.75" y="-372.57" font-family="Times New Roman,serif" font-size="14.00">[root] output.ec2_global_ips (expand)</text>
</g>
<!-- [root] output.ec2_global_ips (expand)&#45;&gt;[root] aws_instance.web_instance (expand) -->
<g id="edge13" class="edge">
<title>[root] output.ec2_global_ips (expand)&#45;&gt;[root] aws_instance.web_instance (expand)</title>
<path fill="none" stroke="black" d="M202.11,-359.7C207.8,-351.73 214.68,-342.1 220.99,-333.26"/>
<polygon fill="black" stroke="black" points="223.69,-335.51 226.65,-325.34 217.99,-331.44 223.69,-335.51"/>
</g>
<!-- [root] provider[&quot;registry.terraform.io/hashicorp/aws&quot;] (close) -->
<g id="node12" class="node">
<title>[root] provider[&quot;registry.terraform.io/hashicorp/aws&quot;] (close)</title>
<ellipse fill="none" stroke="black" cx="598.75" cy="-378" rx="237.69" ry="18"/>
<text text-anchor="middle" x="598.75" y="-372.57" font-family="Times New Roman,serif" font-size="14.00">[root] provider[&quot;registry.terraform.io/hashicorp/aws&quot;] (close)</text>
</g>
<!-- [root] provider[&quot;registry.terraform.io/hashicorp/aws&quot;] (close)&#45;&gt;[root] aws_instance.web_instance (expand) -->
<g id="edge14" class="edge">
<title>[root] provider[&quot;registry.terraform.io/hashicorp/aws&quot;] (close)&#45;&gt;[root] aws_instance.web_instance (expand)</title>
<path fill="none" stroke="black" d="M515.49,-360.76C461.89,-350.31 392.04,-336.69 336.06,-325.78"/>
<polygon fill="black" stroke="black" points="337.03,-322.4 326.54,-323.92 335.69,-329.27 337.03,-322.4"/>
</g>
<!-- [root] provider[&quot;registry.terraform.io/hashicorp/aws&quot;] (close)&#45;&gt;[root] aws_route_table_association.public_1_rt_a (expand) -->
<g id="edge15" class="edge">
<title>[root] provider[&quot;registry.terraform.io/hashicorp/aws&quot;] (close)&#45;&gt;[root] aws_route_table_association.public_1_rt_a (expand)</title>
<path fill="none" stroke="black" d="M588.86,-359.7C584.41,-351.9 579.04,-342.51 574.08,-333.83"/>
<polygon fill="black" stroke="black" points="577.28,-332.36 569.28,-325.42 571.2,-335.84 577.28,-332.36"/>
</g>
<!-- [root] provider[&quot;registry.terraform.io/hashicorp/aws&quot;] (close)&#45;&gt;[root] aws_subnet.some_private_subnet (expand) -->
<g id="edge16" class="edge">
<title>[root] provider[&quot;registry.terraform.io/hashicorp/aws&quot;] (close)&#45;&gt;[root] aws_subnet.some_private_subnet (expand)</title>
<path fill="none" stroke="black" d="M651.74,-360.01C669.09,-351.84 686.71,-340.19 697.75,-324 724.84,-284.27 724.23,-225.86 720.83,-191.4"/>
<polygon fill="black" stroke="black" points="724.35,-191.32 719.73,-181.78 717.39,-192.11 724.35,-191.32"/>
</g>
<!-- [root] root -->
<g id="node13" class="node">
<title>[root] root</title>
<ellipse fill="none" stroke="black" cx="393.75" cy="-450" rx="50.07" ry="18"/>
<text text-anchor="middle" x="393.75" y="-444.57" font-family="Times New Roman,serif" font-size="14.00">[root] root</text>
</g>
<!-- [root] root&#45;&gt;[root] output.ec2_global_ips (expand) -->
<g id="edge17" class="edge">
<title>[root] root&#45;&gt;[root] output.ec2_global_ips (expand)</title>
<path fill="none" stroke="black" d="M358.68,-436.97C328.43,-426.59 284.12,-411.38 248.47,-399.15"/>
<polygon fill="black" stroke="black" points="249.74,-395.88 239.14,-395.95 247.47,-402.5 249.74,-395.88"/>
</g>
<!-- [root] root&#45;&gt;[root] provider[&quot;registry.terraform.io/hashicorp/aws&quot;] (close) -->
<g id="edge18" class="edge">
<title>[root] root&#45;&gt;[root] provider[&quot;registry.terraform.io/hashicorp/aws&quot;] (close)</title>
<path fill="none" stroke="black" d="M428.99,-436.97C458.97,-426.73 502.7,-411.8 538.27,-399.65"/>
<polygon fill="black" stroke="black" points="539.26,-403.01 547.59,-396.47 536.99,-396.39 539.26,-403.01"/>
</g>
</g>
</svg>
